<?xml version="1.0" encoding="UTF-8"?><svg id="Layer_1" xmlns="http://www.w3.org/2000/svg" viewBox="0 0 1000 1000"><defs><style>.cls-1{fill:#fff;}</style></defs><path class="cls-1" d="m440.56,468.83c0,134.52-30.62,235.95-91.86,304.4-61.24,68.45-151.91,102.67-271.97,102.67v-147.69c62.41,0,106.83-16.21,133.28-48.63,26.4-32.42,39.63-82.23,39.63-149.5v-82.85H69.52V137.41h331.41c26.4,115.27,39.63,225.76,39.63,331.41Zm489.92,0c0,134.52-31.24,235.95-93.66,304.4-62.48,68.45-153.72,102.67-273.78,102.67v-147.69c62.42,0,106.83-16.21,133.29-48.63,26.4-32.42,39.63-82.23,39.63-149.5v-82.85h-180.12V137.41h331.42c28.82,124.9,43.23,235.39,43.23,331.41Z"/></svg>